<svg id="Component_21_1" data-name="Component 21 – 1" xmlns="http://www.w3.org/2000/svg" width="200" height="684.666" viewBox="0 0 200 684.666">
  <g id="Component_12_1" data-name="Component 12 – 1">
    <g id="Path_104" data-name="Path 104" fill="rgba(128,77,27,0.7)">
      <path d="M0,0H199.375L200,574.273,100.169,684.666.113,574.728Z" stroke="none"/>
      <path d="M 2.000396728515625 2 L 2.112945556640625 573.9535522460938 L 100.1647338867188 681.689453125 L 197.9991607666016 573.503662109375 L 197.3770904541016 2 L 2.000396728515625 2 M 0 0 L 199.3749084472656 0 L 200 574.27294921875 L 100.1694564819336 684.666015625 L 0.11309814453125 574.7275390625 L 0 0 Z" stroke="none" fill="rgba(112,112,112,0.68)"/>
    </g>
    <g id="Path_105" data-name="Path 105" transform="translate(4)" fill="rgba(128,77,27,0.7)">
      <path d="M-.978.032,192.4.062,193.109,573,96.091,680.315-1,572.886Z" stroke="none"/>
      <path d="M 0.0216064453125 1.03192138671875 L -0.0002593994140625 572.5013427734375 L 96.09070587158203 678.8236694335938 L 192.1089172363281 572.6189575195312 L 191.4000549316406 1.06182861328125 L 0.0216064453125 1.03192138671875 M -0.9783477783203125 0.03173828125 L 192.3988189697266 0.06201171875 L 193.1094055175781 573.00341796875 L 96.09056854248047 680.31494140625 L -1.000274658203125 572.88623046875 L -0.9783477783203125 0.03173828125 Z" stroke="none" fill="rgba(112,112,112,0.68)"/>
    </g>
  </g>
  <g id="Component_14_1" data-name="Component 14 – 1" transform="translate(13 375)">
    <path id="Path_127" data-name="Path 127" d="M502.3-837.7l-37.168,39.125h26.52l16.865,25.088,16.646-53.184-13.022,4.327Z" transform="translate(-450.313 977.699)" fill="#b9722d"/>
    <path id="Path_128" data-name="Path 128" d="M487.991-837.7l37.168,39.125H498.64L481.775-773.49l-16.646-53.184,13.022,4.327Z" transform="translate(-370.313 977.699)" fill="#b9722d"/>
    <path id="Path_129" data-name="Path 129" d="M526.473-697.29c0-10.517,13.951-6.665,18.051-18.729s-8.317-20.35-1.65-29.53,17.383.632,28.318-7.19,4.943-20.832,15.422-24.1,13.268,11.031,26.49,11.031,16.406-13.771,26.4-11.031,2.8,14.167,13.579,21.989,22.163.592,29.551,9.3-4.5,13.471,0,25.536,17.99,11.711,17.99,22.723-13.9,8.614-17.99,21.326,9.027,20.258,1.639,29.523-20-.2-31.19,7.535S649.5-618.5,639.506-615.519s-13.178-11.472-26.4-11.472-16.012,14.83-26.49,11.472-4.487-17.174-15.422-24.9-21.651,2.363-28.318-6.018,5.75-14.8,1.65-27.508S526.473-686.773,526.473-697.29Z" transform="translate(-526.473 777.325)" fill="#cd7f32"/>
    <path id="Path_132" data-name="Path 132" d="M-.036,1.94,154.344.475s-.714-.389,1.72,1.5a53.007,53.007,0,0,1,5.715,5.113,8.381,8.381,0,0,1,1.922,2.6L-5.485,11.843a8.566,8.566,0,0,1,.162-3.852A8.375,8.375,0,0,1-3.465,4.617,21.079,21.079,0,0,1-.036,1.94Z" transform="matrix(0.799, -0.602, 0.602, 0.799, 14.43, 118.963)" fill="rgba(255,255,255,0.71)"/>
    <path id="Path_133" data-name="Path 133" d="M6.393,2.4l140.129-.454s-.231-.264,1.152,1.4-.576,4.656-1.969,6.7a20.624,20.624,0,0,0-2,3.562L9.6,13.956a13.934,13.934,0,0,0-.563-2.884c-.562-1.371-1.5-3.6-2.3-5.632A5.422,5.422,0,0,1,6.393,2.4Z" transform="matrix(0.799, -0.602, 0.602, 0.799, -1.733, 91.419)" fill="rgba(255,255,255,0.58)"/>
    <path id="Path_130" data-name="Path 130" d="M526.473-719.846c0-7.535,10.065-4.775,13.023-13.419s-6-14.58-1.19-21.157,12.541.453,20.43-5.152S562.3-774.5,569.862-776.84s9.572,7.9,19.112,7.9,11.836-9.866,19.047-7.9,2.018,10.15,9.8,15.754,15.99.424,21.32,6.664-3.245,9.652,0,18.3,12.979,8.39,12.979,16.28-10.03,6.171-12.979,15.279,6.512,14.514,1.183,21.152-14.427-.14-22.5,5.4-2.586,14.622-9.8,16.756-9.507-8.219-19.047-8.219-11.552,10.625-19.112,8.219-3.237-12.3-11.126-17.843-15.62,1.693-20.43-4.312,4.148-10.6,1.19-19.708S526.473-712.311,526.473-719.846Z" transform="translate(-502.473 801.067)" fill="#b9722d"/>
    <ellipse id="Ellipse_53" data-name="Ellipse 53" cx="41.5" cy="40" rx="41.5" ry="40" transform="translate(44.527 42.699)" fill="#cd7f32"/>
    <path id="Path_131" data-name="Path 131" d="M69.184-634.839l23.953-3.493,2.99-5.527,7.2-13.316,10.506,18.843,22.264,3.493L120.79-620.444l3.693,21.66-21.155-9.924-20.919,9.924,3.477-21.66Z" transform="translate(-17.473 709.967)" fill="#fff"/>
  </g>
  <text id="BRONZE" transform="translate(19 69)" fill="rgba(255,255,255,0.89)" stroke="rgba(0,0,0,0)" stroke-width="1" font-size="40" font-family="'.AppleSystemUIFont'" font-weight="700"><tspan x="0" y="0">BRONZE</tspan></text>
  <text id="BRONZE-2" data-name="BRONZE" transform="translate(20 69)" fill="#653e18" stroke="rgba(0,0,0,0)" stroke-width="1" font-size="40" font-family="'.AppleSystemUIFont'" font-weight="700"><tspan x="0" y="0">BRONZE</tspan></text>
</svg>
