<svg xmlns="http://www.w3.org/2000/svg" width="1366.342" height="1558.686" viewBox="0 0 1366.342 1558.686"><g transform="translate(2 2.501)"><path d="M229.18,859.272s12.986,124.084-7.955,103.618c-2.76-32.026-14.207-422.908-70.61-583.164S-.777,40.325-.777,40.325s18.007-8.114,22.5,0C46.446,84.975,102.488,227.572,150.616,350.9c64,164,78.565,508.373,78.565,508.373" transform="translate(451.042 585.452)" fill="#4a0909" stroke="#707070" stroke-width="1"/><path d="M0,656s-5.349,32.161,12.018,17.322c2.76-32.026,11.277-149.1,62.34-301.706s159.17-331.29,159.17-331.29-18.007-8.114-22.5,0C186.306,84.975,130.264,190.7,82.136,314.028,18.136,478.028,0,656,0,656" transform="translate(670.042 878.452)" fill="#4a0909" stroke="#707070" stroke-width="1"/><path d="M3332.489-928.413c116.373,315.24,430.036-63.962,430.036-63.962s297.833,250.76,165.28-119.258-543.546-514.319-543.546-514.319S3216.116-1243.653,3332.489-928.413Z" transform="translate(-3291.458 1625.952)" fill="#0af800" stroke="#240606" stroke-width="4"/><path d="M3920.769-928.413c-116.373,315.24-430.035-63.962-430.035-63.962s-297.833,250.76-165.28-119.258S3869-1625.952,3869-1625.952,4037.142-1243.653,3920.769-928.413Z" transform="translate(-2599.458 1910.952)" fill="#0af800" stroke="#240606" stroke-width="4"/><path d="M-.714,607.806s13.006-79.694,120.974-263.17S265.579,104.4,265.579,104.4" transform="translate(890.042 314.452)" fill="rgba(14,65,16,0.24)" stroke="#707070" stroke-width="1"/><path d="M310.7,665.529S295.492,576.7,169.229,372.183-.714,104.4-.714,104.4" transform="translate(157.919 -27.271)" fill="rgba(14,65,16,0.24)" stroke="#707070" stroke-width="1"/></g></svg>