<svg id="Component_7_1" data-name="Component 7 – 1" xmlns="http://www.w3.org/2000/svg" width="2396" height="2013.796" viewBox="0 0 2396 2013.796">
  <line id="Line_41" data-name="Line 41" x1="67" y1="60" transform="translate(186.5 749.5)" fill="none" stroke="#707070" stroke-width="3" opacity="0.556"/>
  <path id="Path_88" data-name="Path 88" d="M926.352-1241.146s-27-71.933-70.749-115.6-67.552-34.037-79.355-63.217-6.785-48.589,32.143-53.5,74,65.592,98.666,37.985,52.154-84.631,0-148.41-160-47.533-208.614-106.7-7.572-119.886,14.177-129.983,33.689,67.2,72.82,89.6,62.777,29.584,83.7,0-27.712-83.458,0-118.336,90.589-50.758,110.847-21.174-33.219,89.27-29.815,139.51,6.733,61.452,43.43,61.452,61.535-73.012,103.358-61.452,83.341,70.92,63.935,107.693-99.736-7.554-141.56,39.4-45.14,111.308-25.734,148.41,103.358-30.235,103.358,0-60.705,90.706-103.358,120.941-63.851-18.349-67.254,0,22.689,55.048,53.639,73.4,33.053-10.007,70.162,0,78.274,40.026,78.274,40.026,40.338,48.867,32.473,71.544-40.3,14.374-63.935,19.166-30.588,0-30.588,0,5.373,3.512-16.224-19.166-70.162-71.544-70.162-71.544H950.176s20.258,43.212,0,43.212-75.076-22.4-81.032-43.212S926.352-1241.146,926.352-1241.146Z" transform="translate(386.345 2852.985) rotate(-30)" fill="rgba(20,168,14,0.69)" stroke="#707070" stroke-width="1" opacity="0.999"/>
  <path id="Path_91" data-name="Path 91" d="M714.588,711.715s59.967-104.88,140-168.987,175.2-89.03,175.2-89.03,119.942-40.978,241.01-27.254,247.561,84.688,247.561,84.688,58.206,38.268,100.932,81.014c19.4,19.406,49.694,54.142,72.941,93.292,27.872,46.939,47.2,97.4,47.2,97.4L2396,2327.37H0Z" transform="translate(0 -392)" fill="#fff" opacity="0.29"/>
  <path id="Path_87" data-name="Path 87" d="M926.352-1241.146s-27-71.933-70.749-115.6-67.552-34.037-79.355-63.217-6.785-48.589,32.143-53.5,74,65.592,98.666,37.985,52.154-84.631,0-148.41-160-47.533-208.614-106.7-7.572-119.886,14.177-129.983,33.689,67.2,72.82,89.6,62.777,29.584,83.7,0-27.712-83.458,0-118.336,90.589-50.758,110.847-21.174-33.219,89.27-29.815,139.51,6.733,61.452,43.43,61.452,61.535-73.012,103.358-61.452,83.341,70.92,63.935,107.693-99.736-7.554-141.56,39.4-45.14,111.308-25.734,148.41,103.358-30.235,103.358,0-60.705,90.706-103.358,120.941-63.851-18.349-67.254,0,22.689,55.048,53.639,73.4,33.053-10.007,70.162,0,78.274,40.026,78.274,40.026,40.338,48.867,32.473,71.544-40.3,14.374-63.935,19.166-30.588,0-30.588,0,5.373,3.512-16.224-19.166-70.162-71.544-70.162-71.544H950.176s20.258,43.212,0,43.212-75.076-22.4-81.032-43.212S926.352-1241.146,926.352-1241.146Z" transform="matrix(0.391, -0.921, 0.921, 0.391, 1725.525, 2669.578)" fill="#14a80e" stroke="#707070" stroke-width="1" opacity="0.999"/>
  <path id="Path_85" data-name="Path 85" d="M-173.653-1730.1c-29.938,11.723,478.609,581.072,478.609,581.072V-1230.7S87.436-1574.923-101.076-1779.514C-137.376-1753.89-143.715-1741.82-173.653-1730.1Z" transform="translate(1683 2735)" fill="#bfbfbf" stroke="rgba(33,5,5,0.54)" stroke-width="1"/>
  <g id="Ellipse_44" data-name="Ellipse 44" transform="translate(654)" fill="rgba(0,0,0,0.16)" stroke="rgba(112,112,112,0.19)" stroke-width="4">
    <ellipse cx="557" cy="548" rx="557" ry="548" stroke="none"/>
    <ellipse cx="557" cy="548" rx="555" ry="546" fill="none"/>
  </g>
  <g id="Ellipse_43" data-name="Ellipse 43" transform="translate(757 104)" fill="rgba(255,255,255,0.99)" stroke="#707070" stroke-width="1" opacity="0.737">
    <ellipse cx="454" cy="444.5" rx="454" ry="444.5" stroke="none"/>
    <ellipse cx="454" cy="444.5" rx="453.5" ry="444" fill="none"/>
  </g>
  <g id="Path_86" data-name="Path 86" transform="translate(525 1401)" fill="rgba(100,6,6,0.35)">
    <path d="M 591.1116333007812 427.3173828125 L 56.64274597167969 427.3173828125 L -144.1618499755859 0.4999855160713196 L 777.0145263671875 0.4999855160713196 L 591.1116333007812 427.3173828125 Z" stroke="none"/>
    <path d="M -143.3740844726562 1 L 56.95989990234375 426.8173828125 L 590.7838745117188 426.8173828125 L 776.2513427734375 1 L -143.3740844726562 1 M -144.9496459960938 0 L 777.777587890625 0 L 591.4390258789062 427.8173828125 L 56.32525634765625 427.8173828125 L -144.9496459960938 0 Z" stroke="none" fill="#707070"/>
  </g>
  <g id="Rectangle_77" data-name="Rectangle 77" transform="translate(380 1350)" fill="#ebdfdf" stroke="#707070" stroke-width="1" opacity="0.999">
    <rect width="923" height="51" stroke="none"/>
    <rect x="0.5" y="0.5" width="922" height="50" fill="none"/>
  </g>
  <line id="Line_42" data-name="Line 42" x1="100" transform="translate(28.5 993.5)" fill="none" stroke="#707070" stroke-width="3" opacity="0.304"/>
  <line id="Line_43" data-name="Line 43" y1="54" x2="20" transform="translate(483.5 773.5)" fill="none" stroke="#707070" stroke-width="3" opacity="0.999"/>
  <line id="Line_44" data-name="Line 44" x1="86" y1="20" transform="translate(294.5 1096.5)" fill="none" stroke="#707070" stroke-width="3" opacity="0.999"/>
  <line id="Line_45" data-name="Line 45" x1="43" y2="33" transform="translate(337.5 1237.5)" fill="none" stroke="#707070" stroke-width="3" opacity="0.999"/>
  <line id="Line_46" data-name="Line 46" y1="34" x2="31" transform="translate(697.5 1142.5)" fill="none" stroke="#707070" stroke-width="3" opacity="0.999"/>
  <line id="Line_47" data-name="Line 47" y1="70" x2="53" transform="translate(654.5 923.5)" fill="none" stroke="#707070" stroke-width="3" opacity="0.999"/>
  <line id="Line_48" data-name="Line 48" y1="23" x2="41" transform="translate(862.5 1168.5)" fill="none" stroke="#707070" stroke-width="3" opacity="0.999"/>
  <line id="Line_49" data-name="Line 49" x1="53" y1="67" transform="translate(990.5 1142.5)" fill="none" stroke="#707070" stroke-width="3" opacity="0.999"/>
  <line id="Line_50" data-name="Line 50" y1="8" x2="110" transform="translate(1101.5 1168.5)" fill="none" stroke="#707070" stroke-width="3" opacity="0.999"/>
  <line id="Line_51" data-name="Line 51" x2="26" y2="17" transform="translate(1017.5 1289.5)" fill="none" stroke="#707070" stroke-width="3" opacity="0.999"/>
  <line id="Line_52" data-name="Line 52" x1="43" y2="25" transform="translate(337.5 1350.5)" fill="none" stroke="#707070" stroke-width="3" opacity="0.999"/>
  <line id="Line_53" data-name="Line 53" y1="91" x2="43" transform="translate(294.5 703.5)" fill="none" stroke="#707070" stroke-width="3" opacity="0.999"/>
  <line id="Line_54" data-name="Line 54" x1="50" y1="65" transform="translate(78.5 890.5)" fill="none" stroke="#707070" stroke-width="3" opacity="0.999"/>
  <line id="Line_55" data-name="Line 55" x1="84" y2="16" transform="translate(275.5 1193.5)" fill="none" stroke="#707070" stroke-width="3" opacity="0.999"/>
  <line id="Line_56" data-name="Line 56" y1="50" x2="57" transform="translate(556.5 809.5)" fill="none" stroke="#707070" stroke-width="3" opacity="0.999"/>
  <line id="Line_57" data-name="Line 57" y1="21" x2="41" transform="translate(462.5 1017.5)" fill="none" stroke="#707070" stroke-width="3" opacity="0.999"/>
  <line id="Line_58" data-name="Line 58" x1="45" y2="65" transform="translate(208.5 1017.5)" fill="none" stroke="#707070" stroke-width="3" opacity="0.999"/>
  <line id="Line_59" data-name="Line 59" x2="6" y2="36" transform="translate(596.5 1218.5)" fill="none" stroke="#707070" stroke-width="3" opacity="0.999"/>
  <line id="Line_60" data-name="Line 60" x2="55" y2="17" transform="translate(1101.5 1237.5)" fill="none" stroke="#707070" stroke-width="3" opacity="0.999"/>
  <line id="Line_61" data-name="Line 61" x1="20" y1="34" transform="translate(1043.5 1142.5)" fill="none" stroke="#707070" stroke-width="3" opacity="0.999"/>
  <line id="Line_62" data-name="Line 62" y1="17" x2="1" transform="translate(1116.5 1142.5)" fill="none" stroke="#707070" stroke-width="3" opacity="0.999"/>
  <line id="Line_63" data-name="Line 63" x2="31" transform="translate(1129.5 1209.5)" fill="none" stroke="#707070" stroke-width="3" opacity="0.999"/>
  <line id="Line_64" data-name="Line 64" x1="28" y1="19" transform="translate(962.5 1218.5)" fill="none" stroke="#707070" stroke-width="3" opacity="0.999"/>
  <line id="Line_65" data-name="Line 65" x1="10" y1="36" transform="translate(940.5 1270.5)" fill="none" stroke="#707070" stroke-width="3" opacity="0.999"/>
  <line id="Line_66" data-name="Line 66" y1="9" x2="34" transform="translate(886.5 1237.5)" fill="none" stroke="#707070" stroke-width="3" opacity="0.999"/>
  <line id="Line_67" data-name="Line 67" y1="26" x2="21" transform="translate(841.5 1116.5)" fill="none" stroke="#707070" stroke-width="3" opacity="0.999"/>
  <line id="Line_68" data-name="Line 68" y1="37" transform="translate(797.5 1172.5)" fill="none" stroke="#707070" stroke-width="1" opacity="0.999"/>
  <line id="Line_69" data-name="Line 69" x1="30" y1="23" transform="translate(797.5 1106.5)" fill="none" stroke="#707070" stroke-width="3" opacity="0.999"/>
  <line id="Line_70" data-name="Line 70" x2="36" transform="translate(654.5 1050.5)" fill="none" stroke="#707070" stroke-width="3" opacity="0.999"/>
  <line id="Line_71" data-name="Line 71" y1="22" x2="36" transform="translate(654.5 1096.5)" fill="none" stroke="#707070" stroke-width="3" opacity="0.999"/>
  <line id="Line_72" data-name="Line 72" x2="41" y2="18" transform="translate(462.5 958.5)" fill="none" stroke="#707070" stroke-width="3" opacity="0.999"/>
  <line id="Line_73" data-name="Line 73" x1="10" y2="21" transform="translate(337.5 1017.5)" fill="none" stroke="#707070" stroke-width="3" opacity="0.999"/>
  <line id="Line_74" data-name="Line 74" x1="22" y2="9" transform="translate(337.5 1142.5)" fill="none" stroke="#707070" stroke-width="3" opacity="0.999"/>
  <line id="Line_75" data-name="Line 75" x1="33" y1="13" transform="translate(347.5 1060.5)" fill="none" stroke="#707070" stroke-width="3" opacity="0.999"/>
  <line id="Line_76" data-name="Line 76" x1="31" y1="1" transform="translate(317.5 1326.5)" fill="none" stroke="#707070" stroke-width="3" opacity="0.999"/>
  <g id="Path_89" data-name="Path 89" transform="translate(581 1828)" fill="rgba(38,8,8,0.58)">
    <path d="M 499.2567749023438 33.70148849487305 C 488.1721496582031 33.70148849487305 476.3312377929688 33.44002914428711 461.340087890625 33.10902786254883 C 435.9850769042969 32.5491828918457 401.2603149414062 31.78248977661133 346.2028503417969 31.78248977661133 C 315.6190490722656 31.78248977661133 281.5081787109375 32.02385330200195 244.8230438232422 32.49996566772461 C 196.4707641601562 31.47678375244141 151.8092651367188 30.95795059204102 112.0835418701172 30.95795059204102 C 62.95223236083984 30.95795059204102 31.87838554382324 31.72479629516602 11.31615543365479 32.23225784301758 C 7.033923625946045 32.33792877197266 3.332477807998657 32.42930603027344 0.04894844070076942 32.49884414672852 C -6.719618320465088 31.00588989257812 -11.85512828826904 29.14955902099609 -15.21569061279297 26.98110389709473 C -18.10476684570312 25.11679649353027 -19.71245956420898 23.00025939941406 -19.99399757385254 20.69018173217773 C -20.25592231750488 18.54048919677734 -19.38722991943359 16.15172004699707 -17.41184425354004 13.59025859832764 C -15.7926139831543 11.49056625366211 -13.4384593963623 9.28187370300293 -10.41492176055908 7.025566101074219 C -5.630770683288574 3.455396890640259 -0.6544591188430786 0.8910290598869324 0.118478462100029 0.5000277161598206 L 536 0.5000277161598206 C 536.1826782226562 0.5087319612503052 539.4326171875 0.6689859628677368 542.9246826171875 1.668335437774658 C 545.0079345703125 2.26456618309021 546.767333984375 3.037950754165649 548.1539306640625 3.96702766418457 C 549.8480224609375 5.102181434631348 550.98291015625 6.473566055297852 551.527099609375 8.043181419372559 C 552.4022216796875 10.56725883483887 551.7828979492188 13.6847972869873 549.6864013671875 17.30910491943359 C 547.1677856445312 21.66313552856445 542.4964599609375 26.77765846252441 535.8012084960938 32.51207733154297 C 523.359619140625 33.33456039428711 512.0816040039062 33.70148849487305 499.2567749023438 33.70148849487305 Z" stroke="none"/>
    <path d="M 0.23822021484375 1.000026702880859 C -0.79443359375 1.527301788330078 -5.55224609375 4.019004821777344 -10.126708984375 7.434335708618164 C -14.7177734375 10.86202812194824 -20.0703125 15.93387413024902 -19.49761962890625 20.63010406494141 C -19.2347412109375 22.78572082519531 -17.70281982421875 24.78125762939453 -14.9443359375 26.56118202209473 C -11.64337158203125 28.69112205505371 -6.5828857421875 30.52000999450684 0.09869384765625 31.99771690368652 C 3.3662109375 31.92826652526855 7.0479736328125 31.83743476867676 11.30322265625 31.73241233825684 C 31.867919921875 31.22487449645996 62.94552612304688 30.4578742980957 112.0835266113281 30.4578742980957 C 151.8089904785156 30.4578742980957 196.4689331054688 30.97667503356934 244.8226013183594 31.9998893737793 C 281.5067749023438 31.52384948730469 315.6138305664062 31.28248977661133 346.2028503417969 31.28248977661133 C 401.2662963867188 31.28248977661133 435.994384765625 32.04925918579102 461.3516845703125 32.60918045043945 C 476.3395385742188 32.94010543823242 488.1777648925781 33.20148849487305 499.2567749023438 33.20148849487305 C 512.0126342773438 33.20148849487305 523.237548828125 32.83817672729492 535.60205078125 32.02418518066406 C 542.1864013671875 26.37100028991699 546.778076171875 21.33767318725586 549.2528686523438 17.06002807617188 C 551.2735595703125 13.56718063354492 551.8799438476562 10.58902740478516 551.0550537109375 8.208257675170898 C 550.5484008789062 6.745796203613281 549.4815673828125 5.460565567016602 547.8840942382812 4.388103485107422 C 546.543701171875 3.488334655761719 544.8350830078125 2.736797332763672 542.8058471679688 2.154411315917969 C 539.4100952148438 1.179943084716797 536.2382202148438 1.012325286865234 535.9779052734375 1.000026702880859 L 0.23822021484375 1.000026702880859 M 0 2.6702880859375e-05 L 536 2.6702880859375e-05 C 536 2.6702880859375e-05 572.930908203125 1.445644378662109 536 33.00002670288086 C 522.6492919921875 33.88618469238281 511.420654296875 34.20149230957031 499.2567749023438 34.20149230957031 C 469.2485656738281 34.20149230957031 433.5274353027344 32.28246688842773 346.2028198242188 32.28246688842773 C 318.2107543945312 32.28246688842773 284.9319763183594 32.47943878173828 244.8189392089844 33.00002670288086 C 190.3440246582031 31.8471794128418 146.8116455078125 31.45791244506836 112.0835571289062 31.45791244506836 C 52.51513671875 31.45791244506836 18.81817626953125 32.60204696655273 0 33.00002670288086 C -46.21502685546875 22.8349494934082 0 2.6702880859375e-05 0 2.6702880859375e-05 Z" stroke="none" fill="#707070"/>
  </g>
  <path id="Path_90" data-name="Path 90" d="M-357.9-1927.68c72.62-138.235,209.172-156.137,165.059-128.851S-366.073-1927.68-357.9-1927.68Z" transform="translate(1683 2778.132)" fill="rgba(74,16,16,0.26)"/>
  <g id="Ellipse_47" data-name="Ellipse 47" transform="translate(1353 347)" fill="#fff" stroke="#707070" stroke-width="1">
    <ellipse cx="54.5" cy="64" rx="54.5" ry="64" stroke="none"/>
    <ellipse cx="54.5" cy="64" rx="54" ry="63.5" fill="none"/>
  </g>
  <g id="Ellipse_48" data-name="Ellipse 48" transform="translate(931 688)" fill="#fff" stroke="#707070" stroke-width="1">
    <ellipse cx="54.5" cy="64" rx="54.5" ry="64" stroke="none"/>
    <ellipse cx="54.5" cy="64" rx="54" ry="63.5" fill="none"/>
  </g>
  <g id="Ellipse_49" data-name="Ellipse 49" transform="translate(947 741)" fill="#663030" stroke="#707070" stroke-width="1">
    <ellipse cx="30" cy="32" rx="30" ry="32" stroke="none"/>
    <ellipse cx="30" cy="32" rx="29.5" ry="31.5" fill="none"/>
  </g>
  <g id="Ellipse_50" data-name="Ellipse 50" transform="translate(1369 404)" fill="rgba(87,28,28,0.91)" stroke="#707070" stroke-width="1">
    <ellipse cx="30" cy="32" rx="30" ry="32" stroke="none"/>
    <ellipse cx="30" cy="32" rx="29.5" ry="31.5" fill="none"/>
  </g>
  <g id="Path_92" data-name="Path 92" transform="translate(149.04 1828)" fill="rgba(38,8,8,0.58)" opacity="0.079">
    <path d="M 443.8220825195312 185.2657623291016 L 227.1137390136719 94.92380523681641 L 429.1824340820312 29.44411659240723 L 964.6963500976562 29.44411659240723 L 443.8220825195312 185.2657623291016 Z" stroke="none"/>
    <path d="M 429.2614135742188 29.94412231445312 L 228.55419921875 94.98262786865234 L 443.849609375 184.7355651855469 L 961.2800903320312 29.94412231445312 L 429.2614135742188 29.94412231445312 M 429.103515625 28.94412231445312 L 968.1121826171875 28.94412231445312 L 443.7943115234375 185.7959289550781 L 225.6732177734375 94.86502838134766 L 429.103515625 28.94412231445312 Z" stroke="none" fill="#707070"/>
  </g>
</svg>
