<svg xmlns="http://www.w3.org/2000/svg" xmlns:xlink="http://www.w3.org/1999/xlink" width="233" height="194" viewBox="0 0 233 194"><defs><clipPath id="a"><rect x="321" y="266" width="233" height="194" fill="none"/></clipPath></defs><g transform="translate(-321 -266)" clip-path="url(#a)" style="isolation:isolate"><g transform="translate(1)"><rect width="1367" height="832" transform="translate(-1)" fill="none"/><path d="M2106.99,255s12.71-14.9,28.253-19.862,33.918,0,33.918,0-10.029,14.9-25.572,19.862S2106.99,255,2106.99,255Z" transform="translate(-1641 76)" fill="#17dd1e"/><path d="M2169.161,255s-12.71-14.9-28.253-19.862-33.918,0-33.918,0,10.029,14.9,25.572,19.862S2169.161,255,2169.161,255Z" transform="translate(-1753 105)" fill="#17dd1e"/><path d="M2138.418,255.847s1.912-9.719-5.945-14.874-25.483-5.749-25.483-5.749,5.07,15.468,12.927,20.624S2138.418,255.847,2138.418,255.847Z" transform="translate(-1707 66.068)" fill="#17dd1e"/><path d="M2075.753,337.162" transform="translate(-1645 54)" fill="none" stroke="#707070" stroke-width="1"/><path d="M1930.086,405.448c.073,21.587,2.937,14.452,4.338,50.212,1.707,43.581-4.263,107.593-4.263,107.593" transform="translate(-1494 -115.123)" fill="#241b1b" stroke="#707070" stroke-width="1"/><path d="M2085.848,333.779c4.4-21.279,25.611-33.4,25.611-33.4" transform="translate(-1645 30.594)" fill="#241b1b" stroke="#707070" stroke-width="1"/><path d="M2113.031,322.041c-4.4-21.279-24.3-23.656-24.3-23.656" transform="translate(-1673 61.594)" fill="none" stroke="#707070" stroke-width="1"/><path d="M2113.031,322.041c-4.4-21.279-24.3-23.656-24.3-23.656" transform="translate(-1673 61.594)" fill="#241b1b" stroke="#707070" stroke-width="1"/><path d="M2113.656,326.2c-4.178-16.112-9.2-19.123-9.2-19.123" transform="translate(-1673 15.594)" fill="#241b1b" stroke="#707070" stroke-width="1"/><path d="M2121.258,240.644s-2.917-5.206-6.484-6.942-7.784,0-7.784,0,2.3,5.206,5.869,6.942S2121.258,240.644,2121.258,240.644Z" transform="translate(-1685 49.791)" fill="#17dd1e"/><path d="M2106.99,236.788s1.462-2.6,3.25-3.471a5.364,5.364,0,0,1,3.9,0s-1.154,2.6-2.942,3.471A6.319,6.319,0,0,1,2106.99,236.788Z" transform="translate(-1671 54.033)" fill="#17dd1e"/><path d="M2021.374,289.473s-3.519-2.666,11.857,2.044a81.778,81.778,0,0,1,26.723,14.612" transform="translate(-1645 54)" fill="rgba(22,163,27,0.29)" stroke="rgba(18,183,23,0.54)" stroke-width="1"/><path d="M2032.339,287.486c12.3,4.126,17.624,7.2,21.837,11.632a63.246,63.246,0,0,1,5.873,7.834" transform="translate(-1629 15)" fill="rgba(23,173,29,0.25)" stroke="rgba(18,183,23,0.54)" stroke-width="0.5"/><path d="M2074.93,289.17c-6.021,1.119-9.832,1.238-16.726,3.127-13.732,4.516-25.865,14.655-25.865,14.655" transform="translate(-1566 24)" fill="rgba(20,185,26,0.58)" stroke="rgba(18,183,23,0.54)" stroke-width="0.5"/><path d="M2059.051,303.4c-7.973-6.9-11.382-6.544-11.382-6.544" transform="translate(-1623 -13)" fill="rgba(16,165,21,0.24)" stroke="rgba(18,183,23,0.54)" stroke-linecap="round" stroke-width="0.2"/><path d="M2059.051,303.714c4.1-3.54,6.341-3.079,6.341-3.079" transform="translate(-1623 -13)" fill="none" stroke="rgba(18,183,23,0.54)" stroke-linecap="round" stroke-width="0.2"/></g></g></svg>